PathFileType	4	(X/Y/Z)	Walk1.trc
DataRate	CameraRate	NumFrames	NumMarkers	Units	OrigDataRate	OrigDataStartFrame	OrigNumFrames
200.000000	200.000000	9	59	mm	200.000000	553	593
Frame#	Times		CLAV		STRN		LASI		RASI		RACR1		RFA1		RWRU		LACR1		LUA1		LFA1		LCAR		RTH2		LTH3		LTH2		LLFC		LTB3		LTB4		LToe		LTB1		RUA1		RElbow		RTH4		LTH4		LMMAL		LMT1		LTB2		LMT5		LTH1		RTH1		RCAR		LLMAL		RBack		C7		RFHD		RTH3		LFHD		RPSI		RWRR		T10		LPSI		RBHD		RLFC		LElbow		RTB1		LWRU		RElbowM		RTB4		RTB2		RToe		LBHD		LWRR		RTB3		RMT1		LElbowM		RCAL		RMT5		RLMAL		RMMAL		LCAL
			X1	Y1	Z1	X2	Y2	Z2	X3	Y3	Z3	X4	Y4	Z4	X5	Y5	Z5	X6	Y6	Z6	X7	Y7	Z7	X8	Y8	Z8	X9	Y9	Z9	X10	Y10	Z10	X11	Y11	Z11	X12	Y12	Z12	X13	Y13	Z13	X14	Y14	Z14	X15	Y15	Z15	X16	Y16	Z16	X17	Y17	Z17	X18	Y18	Z18	X19	Y19	Z19	X20	Y20	Z20	X21	Y21	Z21	X22	Y22	Z22	X23	Y23	Z23	X24	Y24	Z24	X25	Y25	Z25	X26	Y26	Z26	X27	Y27	Z27	X28	Y28	Z28	X29	Y29	Z29	X30	Y30	Z30	X31	Y31	Z31	X32	Y32	Z32	X33	Y33	Z33	X34	Y34	Z34	X35	Y35	Z35	X36	Y36	Z36	X37	Y37	Z37	X38	Y38	Z38	X39	Y39	Z39	X40	Y40	Z40	X41	Y41	Z41	X42	Y42	Z42	X43	Y43	Z43	X44	Y44	Z44	X45	Y45	Z45	X46	Y46	Z46	X47	Y47	Z47	X48	Y48	Z48	X49	Y49	Z49	X50	Y50	Z50	X51	Y51	Z51	X52	Y52	Z52	X53	Y53	Z53	X54	Y54	Z54	X55	Y55	Z55	X56	Y56	Z56	X57	Y57	Z57	X58	Y58	Z58	X59	Y59	Z59

553	2.765	824.32	1350	-12.98	899.36	1128.1	-11.19	847.17	948.72	-134.77	854.49	962.17	135.5	775.39	1361.9	162.74	757.01	904.45	254.26	721.64	797.35	270.93	757.83	1368.3	-178.59	750.06	1160.1	-229.88	808.48	924.96	-241.85	846.39	770.33	-239.96	898.65	706.25	145.91	759.97	556.45	-122.06	824.72	651.21	-115.22	755.48	446.92	-108.46	709.51	166.68	-25.858	738.47	254.29	-29.641	839.01	28.434	-66.865	763.87	346.19	-26.037	736.82	1152.2	222.71	704.13	1048.6	244.07	837.16	673.83	164.93	751.67	642.4	-140.24	662.44	72.206	6.3877	791.98	37.155	-36.179	721.06	260.43	-98.465	752.74	22.895	-113.91	746.79	738.22	-161.51	801.45	760.36	183.55	766.14	754.44	268.26	647.61	62.966	-74.926	655.63	1324.1	91.89	700.34	1429.8	-3.4288	894.45	1580.8	31.072	871.64	587.87	146.64	882.31	1582.6	-40.946	638.55	985.04	70.754	773.98	798.9	217.93	664.13	1144.3	-3.3718	634.72	982.42	-43.608	723.02	1562.2	78.61	893.33	499.87	129.33	740.27	1040.5	-245.84	892.51	374.15	65.21	795.41	804.54	-257.8	690.33	1028.3	160.51	843.72	295.25	63.165	823.36	309.64	129.73	868.58	41.426	117.14	709.28	1575.1	-47.086	834.44	811.88	-197.83	795.7	216.66	60.853	841.89	56.463	80.654	705.65	1025.5	-185.14	659.19	121.9	49.081	784.7	49.285	139.52	705.54	139.74	103.42	741.68	143.86	30.23	595.52	31.5	-21.896
554	2.77	829.44	1349.8	-12.909	904.48	1127.9	-11.348	852.32	948.25	-134.57	859.88	962.19	135.27	780.64	1361.5	162.88	760.24	904.01	254.41	724.13	797.14	271.12	762.79	1368.3	-178.38	756.04	1160.3	-230.2	816.58	925.74	-242.06	856.53	771.75	-239.73	904.63	707.05	145.98	763.08	556	-121.85	828.3	650.38	-114.94	757.9	446.43	-108.2	710.19	166.42	-25.671	739.69	253.85	-29.42	839.01	28.412	-67	765.65	345.61	-25.786	741.28	1151.9	222.78	708.3	1048.4	244	843.32	674.3	165.21	755.33	641.98	-140.04	662.65	72.118	6.5724	791.99	37.162	-36.162	722.4	260.09	-98.271	752.7	22.886	-113.88	750.87	737.82	-161.28	807.28	760.66	183.97	768.3	753.88	268.5	647.72	63.104	-74.835	660.84	1323.8	92.015	705.45	1429.5	-3.1817	899.69	1580.5	31.177	878.2	588.53	146.7	887.47	1582.3	-40.827	643.79	984.95	70.854	776.47	798.27	218.15	669.32	1144	-3.4082	639.82	982.23	-43.453	728.3	1562	78.907	900.05	500.16	129.54	747.07	1040.6	-246.44	902.01	374.13	65.392	805.12	805.18	-257.83	694.6	1028.2	160.4	855.46	293.88	63.281	834.62	307.82	129.76	887.4	41.111	118.27	714.42	1574.9	-46.753	843.83	813.15	-197.72	809.69	214.03	60.927	860.48	55.443	81.576	712.36	1025.2	-185.88	676.05	115.34	48.805	803.14	46.864	140.1	721.64	134.72	103.28	757.97	139.72	30.214	595.54	31.698	-21.766
555	2.775	834.57	1349.5	-12.826	909.62	1127.7	-11.484	857.43	947.7	-134.38	865.24	962.12	135.05	785.91	1361.1	163.05	763.53	903.53	254.59	726.71	796.88	271.34	767.77	1368.2	-178.15	762	1160.4	-230.5	824.64	926.48	-242.29	866.63	773.16	-239.51	910.53	707.73	146.04	766.22	555.53	-121.63	831.9	649.54	-114.67	760.36	445.91	-107.94	710.87	166.16	-25.482	740.93	253.4	-29.2	839.01	28.389	-67.134	767.48	345	-25.54	745.78	1151.6	222.86	712.52	1048.2	243.95	849.4	674.68	165.5	759.01	641.54	-139.84	662.88	72.029	6.7728	792.01	37.168	-36.138	723.77	259.74	-98.074	752.67	22.874	-113.84	754.98	737.39	-161.04	813.08	760.89	184.39	770.53	753.28	268.74	647.84	63.247	-74.744	666.06	1323.4	92.159	710.57	1429.2	-2.9148	904.93	1580.1	31.3	884.62	589.08	146.76	892.63	1581.9	-40.688	649.05	984.81	70.969	779.02	797.61	218.39	674.52	1143.7	-3.4255	644.93	982	-43.282	733.58	1561.7	79.224	906.6	500.3	129.79	753.85	1040.6	-247.01	911.39	374.04	65.595	814.79	805.8	-257.83	698.92	1028	160.32	867.16	292.49	63.428	845.89	305.93	129.83	906.28	40.931	119.46	719.55	1574.7	-46.402	853.21	814.41	-197.62	823.74	211.42	61.038	879.14	54.551	82.548	719.09	1024.9	-186.55	693.14	108.82	48.581	821.69	44.563	140.74	737.93	129.72	103.2	774.41	135.62	30.242	595.57	31.907	-21.638
556	2.78	839.71	1349.2	-12.727	914.78	1127.4	-11.601	862.49	947.08	-134.2	870.58	961.94	134.85	791.19	1360.6	163.23	766.89	903.01	254.8	729.37	796.58	271.58	772.75	1368.1	-177.9	767.92	1160.5	-230.79	832.66	927.2	-242.53	876.67	774.57	-239.3	916.36	708.28	146.08	769.41	555.01	-121.41	835.52	648.66	-114.39	762.86	445.37	-107.69	711.58	165.88	-25.29	742.2	252.93	-28.981	839.01	28.363	-67.266	769.34	344.38	-25.298	750.32	1151.3	222.97	716.8	1047.9	243.94	855.39	674.98	165.8	762.7	641.09	-139.64	663.1	71.943	6.9893	792.04	37.174	-36.107	725.16	259.37	-97.873	752.63	22.859	-113.79	759.1	736.93	-160.79	818.83	761.05	184.81	772.85	752.65	269	647.97	63.396	-74.653	671.29	1323	92.323	715.71	1428.9	-2.6274	910.17	1579.6	31.444	890.93	589.53	146.84	897.78	1581.6	-40.529	654.31	984.61	71.102	781.65	796.92	218.65	679.73	1143.3	-3.4214	650.03	981.72	-43.097	738.86	1561.4	79.564	912.98	500.28	130.08	760.59	1040.6	-247.54	920.64	373.89	65.819	824.41	806.41	-257.81	703.31	1027.8	160.27	878.82	291.09	63.608	857.16	303.99	129.95	925.22	40.903	120.66	724.68	1574.5	-46.031	862.57	815.66	-197.53	837.84	208.83	61.188	897.87	53.807	83.554	725.84	1024.5	-187.17	710.46	102.37	48.41	840.35	42.404	141.42	754.39	124.77	103.17	790.97	131.6	30.316	595.6	32.129	-21.509
557	2.785	844.88	1348.8	-12.613	919.96	1127	-11.698	867.5	946.38	-134.04	875.91	961.65	134.67	796.5	1360.1	163.43	770.32	902.46	255.02	732.12	796.24	271.84	777.74	1367.9	-177.64	773.82	1160.5	-231.05	840.64	927.88	-242.77	886.65	775.95	-239.11	922.1	708.72	146.11	772.63	554.47	-121.18	839.17	647.77	-114.11	765.41	444.8	-107.43	712.3	165.6	-25.097	743.5	252.45	-28.763	839	28.335	-67.395	771.24	343.74	-25.062	754.91	1150.9	223.1	721.14	1047.6	243.95	861.3	675.18	166.12	766.41	640.61	-139.45	663.33	71.868	7.2206	792.07	37.179	-36.069	726.59	258.99	-97.669	752.58	22.842	-113.75	763.24	736.43	-160.54	824.54	761.13	185.24	775.26	751.98	269.26	648.1	63.551	-74.562	676.55	1322.5	92.506	720.86	1428.5	-2.319	915.4	1579.2	31.61	897.1	589.87	146.93	902.92	1581.1	-40.347	659.59	984.37	71.254	784.34	796.19	218.92	684.95	1142.9	-3.3936	655.14	981.4	-42.898	744.13	1561	79.926	919.19	500.11	130.42	767.31	1040.6	-248.04	929.77	373.69	66.067	833.98	807	-257.76	707.75	1027.5	160.25	890.43	289.69	63.821	868.43	302.01	130.11	944.21	41.046	121.88	729.81	1574.2	-45.64	871.91	816.9	-197.44	851.98	206.3	61.376	916.65	53.226	84.579	732.6	1024.1	-187.73	728	96.023	48.297	859.12	40.405	142.13	771.01	119.89	103.21	807.65	127.68	30.436	595.63	32.364	-21.381
558	2.79	850.06	1348.4	-12.483	925.17	1126.6	-11.776	872.47	945.62	-133.9	881.23	961.27	134.52	801.82	1359.5	163.64	773.83	901.86	255.28	734.97	795.86	272.13	782.74	1367.7	-177.36	779.68	1160.4	-231.28	848.58	928.52	-243.01	896.57	777.33	-238.92	927.75	709.02	146.12	775.88	553.9	-120.96	842.84	646.85	-113.84	768	444.2	-107.17	713.03	165.3	-24.902	744.83	251.96	-28.546	839	28.303	-67.522	773.18	343.08	-24.832	759.56	1150.4	223.24	725.53	1047.2	243.99	867.12	675.28	166.45	770.13	640.12	-139.26	663.55	71.809	7.4631	792.11	37.183	-36.025	728.04	258.6	-97.461	752.54	22.825	-113.7	767.4	735.9	-160.28	830.2	761.15	185.66	777.75	751.28	269.55	648.24	63.712	-74.469	681.83	1322	92.711	726.03	1428	-1.9894	920.63	1578.7	31.799	903.13	590.09	147.03	908.07	1580.6	-40.142	664.88	984.07	71.426	787.11	795.44	219.21	690.2	1142.4	-3.3399	660.25	981.04	-42.683	749.4	1560.6	80.313	925.23	499.79	130.8	774.01	1040.5	-248.5	938.77	373.44	66.338	843.49	807.59	-257.7	712.26	1027.1	160.27	901.99	288.31	64.069	879.69	300	130.31	963.22	41.376	123.09	734.93	1573.8	-45.226	881.23	818.12	-197.36	866.15	203.83	61.604	935.47	52.827	85.607	739.37	1023.7	-188.23	745.75	89.799	48.246	877.98	38.589	142.88	787.79	115.11	103.3	824.43	123.89	30.605	595.66	32.612	-21.252
559	2.795	855.26	1347.9	-12.335	930.4	1126.1	-11.836	877.4	944.79	-133.79	886.54	960.77	134.38	807.17	1358.9	163.88	777.42	901.23	255.55	737.91	795.45	272.45	787.76	1367.4	-177.07	785.51	1160.4	-231.49	856.47	929.14	-243.25	906.43	778.69	-238.74	933.31	709.2	146.13	779.17	553.3	-120.73	846.53	645.92	-113.57	770.62	443.58	-106.91	713.79	165	-24.706	746.17	251.46	-28.33	839	28.268	-67.646	775.15	342.4	-24.61	764.26	1149.9	223.4	729.99	1046.8	244.06	872.85	675.29	166.79	773.86	639.6	-139.07	663.78	71.77	7.7122	792.15	37.184	-35.975	729.51	258.19	-97.25	752.49	22.808	-113.64	771.56	735.33	-160.03	835.81	761.1	186.08	780.34	750.54	269.85	648.38	63.879	-74.374	687.13	1321.4	92.936	731.22	1427.5	-1.6382	925.86	1578.1	32.012	909.02	590.2	147.16	913.21	1580.1	-39.913	670.18	983.73	71.619	789.95	794.65	219.52	695.46	1141.9	-3.2582	665.37	980.65	-42.453	754.66	1560.1	80.725	931.1	499.33	131.23	780.67	1040.3	-248.91	947.64	373.15	66.636	852.94	808.16	-257.61	716.82	1026.8	160.31	913.5	286.95	64.353	890.93	297.98	130.56	982.25	41.911	124.27	740.05	1573.4	-44.789	890.53	819.33	-197.29	880.35	201.45	61.873	954.3	52.625	86.622	746.16	1023.2	-188.67	763.69	83.727	48.261	896.92	36.973	143.64	804.72	110.45	103.46	841.28	120.25	30.822	595.69	32.876	-21.121
560	2.8	860.49	1347.4	-12.167	935.65	1125.6	-11.877	882.28	943.91	-133.7	891.85	960.18	134.28	812.54	1358.3	164.13	781.08	900.57	255.86	740.94	795.01	272.8	792.79	1367.1	-176.76	791.31	1160.2	-231.66	864.33	929.72	-243.48	916.22	780.03	-238.58	938.79	709.24	146.12	782.49	552.67	-120.5	850.25	644.96	-113.31	773.29	442.94	-106.65	714.56	164.7	-24.508	747.55	250.94	-28.115	838.99	28.231	-67.768	777.16	341.7	-24.395	769.01	1149.4	223.58	734.5	1046.4	244.16	878.48	675.2	167.15	777.61	639.05	-138.88	664	71.753	7.9633	792.19	37.184	-35.92	731	257.78	-97.035	752.44	22.791	-113.58	775.74	734.73	-159.77	841.37	760.97	186.5	783.02	749.77	270.17	648.53	64.053	-74.277	692.46	1320.8	93.184	736.43	1427	-1.2652	931.08	1577.5	32.25	914.76	590.18	147.31	918.34	1579.6	-39.658	675.5	983.34	71.833	792.88	793.84	219.85	700.75	1141.3	-3.1464	670.49	980.22	-42.208	759.93	1559.5	81.162	936.81	498.72	131.71	787.31	1040.1	-249.28	956.38	372.83	66.96	862.33	808.71	-257.5	721.44	1026.3	160.38	924.94	285.62	64.675	902.15	295.97	130.86	1001.3	42.669	125.41	745.17	1572.9	-44.327	899.81	820.53	-197.22	894.56	199.17	62.183	973.13	52.637	87.611	752.95	1022.7	-189.04	781.8	77.836	48.343	915.93	35.577	144.42	821.76	105.94	103.68	858.2	116.79	31.088	595.73	33.155	-20.989
561	2.805	865.74	1346.9	-11.979	940.91	1125	-11.901	887.11	942.97	-133.65	897.16	959.49	134.2	817.93	1357.6	164.41	784.83	899.87	256.18	744.08	794.53	273.18	797.85	1366.7	-176.44	797.08	1160	-231.81	872.14	930.27	-243.7	925.94	781.35	-238.44	944.17	709.14	146.1	785.84	552.01	-120.28	853.98	643.98	-113.06	775.98	442.28	-106.39	715.34	164.39	-24.307	748.94	250.41	-27.899	838.99	28.19	-67.888	779.2	340.99	-24.189	773.83	1148.8	223.78	739.07	1045.9	244.28	884.02	675.01	167.52	781.37	638.47	-138.69	664.22	71.76	8.2133	792.24	37.181	-35.861	732.51	257.36	-96.819	752.39	22.777	-113.52	779.93	734.11	-159.51	846.87	760.77	186.91	785.81	748.98	270.5	648.69	64.236	-74.175	697.81	1320.1	93.454	741.67	1426.4	-0.87011	936.3	1576.9	32.515	920.35	590.05	147.5	923.47	1579.1	-39.378	680.83	982.9	72.068	795.88	793.01	220.21	706.07	1140.7	-3.0028	675.61	979.75	-41.946	765.19	1558.9	81.626	942.35	497.97	132.24	793.93	1039.9	-249.61	964.98	372.48	67.314	871.66	809.26	-257.37	726.12	1025.8	160.48	936.31	284.35	65.034	913.34	293.98	131.21	1020.3	43.663	126.48	750.29	1572.4	-43.84	909.05	821.71	-197.16	908.77	197.01	62.537	991.94	52.875	88.559	759.75	1022.1	-189.35	800.05	72.154	48.494	934.98	34.418	145.21	838.91	101.6	103.97	875.16	113.52	31.402	595.76	33.453	-20.856
